<?xml version="1.0"?>
<svg version="1.1" xmlns="http://www.w3.org/2000/svg" width="200" height="50" style=""><path fill="#f09d51" d="M30.68,26.96l-2.716,0.392s0.756,1.008,0.756,2.828c0,3.78-2.52,5.46-6.16,5.46c-1.26,0-2.1-0.252-2.1-0.252l-0.14,2.632l4.34,0c3.64,0,5.6,1.4,5.6,4.06c0,3.08-2.38,5.04-7.28,5.04c-3.92,0-6.72-0.98-6.72-4.06c0-2.52,2.94-3.5,2.94-3.5s-1.68-0.14-1.68-1.596c0-0.924,1.456-3.164,1.456-3.164s-2.156-0.98-2.156-4.34c0-3.64,2.52-5.46,6.16-5.46c1.82,0,2.8,0.532,2.8,0.532l4.9-0.112l0,1.54z M22.84,26.96c-2.24,0-3.22,1.12-3.22,3.36c0,1.96,0.98,3.36,3.08,3.36c2.24,0,3.22-0.98,3.22-3.36c0-2.1-0.98-3.36-3.08-3.36z M23.96,40.12l-3.08,0s-1.82,0.84-1.82,2.52c0,1.96,1.68,2.38,4.34,2.38c2.8,0,4.2-0.84,4.2-2.66s-1.4-2.24-3.64-2.24z M41.5608,25c4.2,0,6.58,2.94,6.58,7.42c0,4.76-2.8,7.98-7,7.98s-6.72-2.52-6.72-7.56c0-4.76,2.94-7.84,7.14-7.84z M41.4208,27.24c-2.8,0-4.06,1.82-4.06,5.46c0,3.36,1.12,5.46,3.92,5.46s3.92-1.96,3.92-5.6c0-3.08-0.98-5.32-3.78-5.32z M59.6376,38.58l0,1.54l-7.756,0l0-1.54l2.38-0.7l0-17.08l-2.38-0.56l0-1.54l5.236-0.14l0,19.32z M78.2184,38.44l0,1.54l-4.76,0.14l-0.224-1.596c-0.812,0.812-2.268,1.876-4.396,1.876c-4.06,0-5.88-2.94-5.88-7.28c0-4.76,2.38-8.12,7.42-8.12c1.036,0,1.932,0.196,2.66,0.448l0-4.648l-2.38-0.56l0-1.54l5.18-0.14l0,19.32z M73.0384,36.06l0-8.26s-0.98-0.56-2.94-0.56c-3.248,0-4.2,2.52-4.2,5.6s0.98,5.32,3.5,5.32c2.38,0,3.64-2.1,3.64-2.1z M94.5592,33.12l-9.66,0c0,3.08,1.652,5.04,4.06,5.04c2.8,0,4.704-1.54,4.704-1.54l0.98,1.456s-2.604,2.324-5.964,2.324c-4.48,0-6.72-2.94-6.72-7.56c0-4.48,2.8-7.84,6.86-7.84s5.88,2.38,5.88,6.58c0,0.7-0.14,1.484-0.14,1.54z M85.0112,31.02l6.72,0c0-2.1-0.812-3.836-3.052-3.836s-3.5,1.736-3.668,3.836z M103.62,25.28l0.252,1.988c0.672-0.588,2.884-2.268,5.208-2.268c3.08,0,4.48,1.96,4.48,5.04l0,7.84l2.1,0.7l0,1.54l-6.72,0l0-1.54l1.82-0.7l0-7.56c0-1.96-0.7-2.94-2.52-2.94c-2.38,0-4.06,2.24-4.06,2.24l0,8.26l1.82,0.7l0,1.54l-7,0l0-1.54l2.38-0.7l0-10.36l-2.38-0.56l0-1.54z"/><path fill="#ffffff" d="M126.6688,35.64l0.308,2.408s0.84,0.252,2.352,0.252c1.68,0,3.164-0.476,3.164-2.212c0-3.024-7.812-1.624-7.812-6.72c0-2.912,2.24-4.368,5.124-4.368c2.212,0,4.788,0.84,4.788,0.84l-0.084,3.78l-1.82,0l-0.448-2.184s-0.868-0.336-2.268-0.336c-1.428,0-2.492,0.448-2.492,1.876c0,2.996,7.812,1.848,7.812,6.636c0,3.22-2.8,4.788-6.16,4.788c-2.576,0-4.424-0.616-4.424-0.616l0-4.144l1.96,0z M144.3536,18.56l0,8.456c0.868-0.728,2.828-2.016,4.9-2.016c3.08,0,4.48,1.96,4.48,5.04l0,7.84l2.1,0.7l0,1.54l-6.72,0l0-1.54l1.82-0.672l0-7.588c0-1.96-0.616-2.94-2.436-2.94c-2.38,0-4.144,2.24-4.144,2.24l0,8.26l1.82,0.7l0,1.54l-7,0l0-1.54l2.38-0.7l0-17.08l-2.38-0.56l0-1.54z M166.8544,25c4.2,0,6.58,2.94,6.58,7.42c0,4.76-2.8,7.98-7,7.98s-6.72-2.52-6.72-7.56c0-4.76,2.94-7.84,7.14-7.84z M166.7144,27.24c-2.8,0-4.06,1.82-4.06,5.46c0,3.36,1.12,5.46,3.92,5.46s3.92-1.96,3.92-5.6c0-3.08-0.98-5.32-3.78-5.32z M190.1952,33.12l-9.66,0c0,3.08,1.652,5.04,4.06,5.04c2.8,0,4.704-1.54,4.704-1.54l0.98,1.456s-2.604,2.324-5.964,2.324c-4.48,0-6.72-2.94-6.72-7.56c0-4.48,2.8-7.84,6.86-7.84s5.88,2.38,5.88,6.58c0,0.7-0.14,1.484-0.14,1.54z M180.6472,31.02l6.72,0c0-2.1-0.812-3.836-3.052-3.836s-3.5,1.736-3.668,3.836z"/></svg>
